<svg xmlns="http://www.w3.org/2000/svg" xmlns:xlink="http://www.w3.org/1999/xlink" width="110" zoomAndPan="magnify" viewBox="0 0 82.5 75.749998" height="101" preserveAspectRatio="xMidYMid meet" version="1.0"><defs><clipPath id="e5f6ab12c1"><path d="M 0 0.269531 L 49 0.269531 L 49 50 L 0 50 Z M 0 0.269531 " clip-rule="nonzero"/></clipPath><clipPath id="260a9a5b20"><path d="M 5 18 L 81.257812 18 L 81.257812 74.820312 L 5 74.820312 Z M 5 18 " clip-rule="nonzero"/></clipPath><clipPath id="49191e4da5"><path d="M 47.214844 0.105469 L 67 0.105469 L 67 20 L 47.214844 20 Z M 47.214844 0.105469 " clip-rule="nonzero"/></clipPath><clipPath id="74d2a00b9d"><path d="M 63 9 L 73.304688 9 L 73.304688 20 L 63 20 Z M 63 9 " clip-rule="nonzero"/></clipPath></defs><g clip-path="url(#e5f6ab12c1)"><path fill="#084d22" d="M 48.375 24.507812 C 48.375 24.894531 48.335938 25.273438 48.261719 25.652344 C 48.1875 26.03125 48.074219 26.398438 47.929688 26.753906 C 47.78125 27.113281 47.597656 27.449219 47.386719 27.773438 C 47.171875 28.09375 46.925781 28.390625 46.65625 28.660156 C 46.382812 28.933594 46.085938 29.179688 45.765625 29.394531 C 45.441406 29.605469 45.105469 29.789062 44.75 29.9375 C 44.390625 30.082031 44.023438 30.195312 43.644531 30.269531 C 43.269531 30.34375 42.886719 30.382812 42.5 30.382812 L 34 30.382812 C 33.492188 30.382812 33 30.480469 32.527344 30.675781 C 32.054688 30.871094 31.640625 31.148438 31.277344 31.511719 C 30.917969 31.871094 30.640625 32.289062 30.445312 32.761719 C 30.25 33.230469 30.152344 33.722656 30.152344 34.234375 L 30.152344 43.300781 C 30.152344 43.683594 30.113281 44.066406 30.039062 44.445312 C 29.960938 44.824219 29.851562 45.191406 29.703125 45.546875 C 29.554688 45.902344 29.375 46.242188 29.160156 46.5625 C 28.945312 46.882812 28.703125 47.179688 28.429688 47.453125 C 28.15625 47.726562 27.859375 47.96875 27.539062 48.183594 C 27.21875 48.398438 26.878906 48.578125 26.523438 48.726562 C 26.167969 48.875 25.800781 48.988281 25.421875 49.0625 C 25.042969 49.136719 24.660156 49.175781 24.277344 49.175781 C 23.890625 49.175781 23.507812 49.136719 23.128906 49.0625 C 22.75 48.988281 22.382812 48.875 22.027344 48.726562 C 21.671875 48.578125 21.332031 48.398438 21.011719 48.183594 C 20.691406 47.96875 20.394531 47.726562 20.121094 47.453125 C 19.847656 47.179688 19.605469 46.882812 19.390625 46.5625 C 19.175781 46.242188 18.996094 45.902344 18.847656 45.546875 C 18.699219 45.191406 18.589844 44.824219 18.511719 44.445312 C 18.4375 44.066406 18.398438 43.683594 18.398438 43.300781 L 18.398438 34.234375 C 18.398438 33.722656 18.300781 33.230469 18.105469 32.761719 C 17.910156 32.289062 17.632812 31.871094 17.273438 31.511719 C 16.910156 31.148438 16.496094 30.871094 16.023438 30.675781 C 15.550781 30.480469 15.058594 30.382812 14.550781 30.382812 L 5.902344 30.382812 C 5.515625 30.382812 5.132812 30.34375 4.753906 30.269531 C 4.378906 30.195312 4.011719 30.082031 3.652344 29.9375 C 3.296875 29.789062 2.957031 29.605469 2.636719 29.394531 C 2.316406 29.179688 2.019531 28.933594 1.746094 28.660156 C 1.472656 28.390625 1.230469 28.09375 1.015625 27.773438 C 0.800781 27.449219 0.621094 27.113281 0.472656 26.753906 C 0.324219 26.398438 0.214844 26.03125 0.140625 25.652344 C 0.0625 25.273438 0.0273438 24.894531 0.0273438 24.507812 C 0.0273438 24.121094 0.0625 23.738281 0.140625 23.359375 C 0.214844 22.984375 0.324219 22.617188 0.472656 22.257812 C 0.621094 21.902344 0.800781 21.5625 1.015625 21.242188 C 1.230469 20.921875 1.472656 20.625 1.746094 20.351562 C 2.019531 20.078125 2.316406 19.835938 2.636719 19.621094 C 2.957031 19.40625 3.296875 19.226562 3.652344 19.078125 C 4.011719 18.929688 4.378906 18.820312 4.753906 18.746094 C 5.132812 18.667969 5.515625 18.632812 5.902344 18.632812 L 14.550781 18.632812 C 15.0625 18.632812 15.554688 18.535156 16.023438 18.339844 C 16.496094 18.144531 16.914062 17.863281 17.273438 17.503906 C 17.636719 17.144531 17.914062 16.726562 18.109375 16.253906 C 18.304688 15.78125 18.402344 15.292969 18.402344 14.78125 L 18.402344 6.144531 C 18.402344 5.761719 18.441406 5.378906 18.515625 5 C 18.589844 4.621094 18.703125 4.253906 18.847656 3.898438 C 18.996094 3.542969 19.179688 3.203125 19.390625 2.882812 C 19.605469 2.5625 19.851562 2.265625 20.121094 1.992188 C 20.394531 1.71875 20.691406 1.476562 21.011719 1.261719 C 21.335938 1.046875 21.671875 0.867188 22.027344 0.71875 C 22.386719 0.570312 22.753906 0.457031 23.132812 0.382812 C 23.507812 0.308594 23.890625 0.269531 24.277344 0.269531 C 24.664062 0.269531 25.046875 0.308594 25.421875 0.382812 C 25.800781 0.457031 26.167969 0.570312 26.527344 0.71875 C 26.882812 0.867188 27.222656 1.046875 27.542969 1.261719 C 27.863281 1.476562 28.160156 1.71875 28.433594 1.992188 C 28.703125 2.265625 28.949219 2.5625 29.164062 2.882812 C 29.378906 3.203125 29.558594 3.542969 29.707031 3.898438 C 29.851562 4.253906 29.964844 4.621094 30.039062 5 C 30.117188 5.378906 30.152344 5.761719 30.152344 6.144531 L 30.152344 14.78125 C 30.152344 15.289062 30.25 15.78125 30.445312 16.253906 C 30.640625 16.726562 30.917969 17.140625 31.28125 17.503906 C 31.640625 17.863281 32.058594 18.140625 32.53125 18.335938 C 33.003906 18.53125 33.492188 18.628906 34.003906 18.628906 L 42.5 18.628906 C 42.886719 18.628906 43.269531 18.667969 43.648438 18.742188 C 44.027344 18.820312 44.394531 18.929688 44.75 19.078125 C 45.105469 19.226562 45.445312 19.40625 45.765625 19.621094 C 46.085938 19.835938 46.382812 20.078125 46.65625 20.351562 C 46.929688 20.625 47.171875 20.921875 47.386719 21.242188 C 47.601562 21.5625 47.78125 21.902344 47.929688 22.257812 C 48.078125 22.617188 48.1875 22.984375 48.261719 23.359375 C 48.339844 23.738281 48.375 24.121094 48.375 24.507812 Z M 48.375 24.507812 " fill-opacity="1" fill-rule="nonzero"/></g><g clip-path="url(#260a9a5b20)"><path fill="#38b6ff" d="M 81.507812 35.789062 C 81.507812 37.066406 81.445312 38.335938 81.320312 39.601562 C 81.195312 40.871094 81.007812 42.128906 80.757812 43.378906 C 80.511719 44.625 80.203125 45.859375 79.832031 47.078125 C 79.460938 48.296875 79.035156 49.496094 78.546875 50.671875 C 78.058594 51.847656 77.515625 53 76.914062 54.121094 C 76.316406 55.246094 75.660156 56.335938 74.953125 57.394531 C 74.246094 58.453125 73.488281 59.476562 72.679688 60.460938 C 71.871094 61.445312 71.015625 62.386719 70.117188 63.289062 C 69.214844 64.191406 68.273438 65.042969 67.289062 65.851562 C 66.304688 66.660156 65.28125 67.417969 64.222656 68.125 C 63.164062 68.832031 62.074219 69.488281 60.949219 70.085938 C 59.828125 70.6875 58.675781 71.230469 57.5 71.71875 C 56.324219 72.207031 55.125 72.636719 53.90625 73.003906 C 52.6875 73.375 51.453125 73.683594 50.207031 73.933594 C 48.957031 74.179688 47.699219 74.367188 46.429688 74.492188 C 45.164062 74.617188 43.890625 74.679688 42.617188 74.679688 C 24.945312 74.679688 10.027344 62.890625 5.292969 46.746094 C 11.691406 59.457031 24.851562 68.175781 40.054688 68.175781 C 45.871094 68.183594 51.410156 66.945312 56.667969 64.457031 C 64.292969 60.851562 67.3125 51.589844 63.335938 44.148438 C 61.039062 39.851562 58.046875 36.117188 54.351562 32.945312 C 59.257812 35.886719 63.328125 39.71875 66.550781 44.445312 C 69.078125 48.148438 74.707031 47.511719 76.328125 43.332031 C 77.867188 39.335938 78.726562 35.199219 78.90625 30.917969 C 79.085938 26.640625 78.578125 22.445312 77.378906 18.332031 C 80.140625 23.824219 81.515625 29.644531 81.507812 35.789062 Z M 81.507812 35.789062 " fill-opacity="1" fill-rule="nonzero"/></g><path fill="#38b6ff" d="M 75.960938 36.179688 C 75.960938 36.515625 75.929688 36.851562 75.863281 37.179688 C 75.796875 37.511719 75.699219 37.832031 75.570312 38.144531 C 75.441406 38.453125 75.285156 38.75 75.097656 39.03125 C 74.910156 39.308594 74.699219 39.570312 74.460938 39.808594 C 74.222656 40.046875 73.960938 40.257812 73.683594 40.445312 C 73.402344 40.632812 73.105469 40.789062 72.796875 40.917969 C 72.484375 41.046875 72.164062 41.144531 71.832031 41.210938 C 71.503906 41.277344 71.167969 41.308594 70.832031 41.308594 C 70.496094 41.308594 70.164062 41.277344 69.832031 41.210938 C 69.5 41.144531 69.179688 41.046875 68.871094 40.917969 C 68.558594 40.789062 68.261719 40.632812 67.984375 40.445312 C 67.703125 40.257812 67.445312 40.046875 67.207031 39.808594 C 66.96875 39.570312 66.753906 39.308594 66.566406 39.03125 C 66.378906 38.75 66.222656 38.453125 66.09375 38.144531 C 65.964844 37.832031 65.867188 37.511719 65.800781 37.179688 C 65.734375 36.851562 65.703125 36.515625 65.703125 36.179688 C 65.703125 35.84375 65.734375 35.507812 65.800781 35.179688 C 65.867188 34.847656 65.964844 34.527344 66.09375 34.214844 C 66.222656 33.90625 66.378906 33.609375 66.566406 33.328125 C 66.753906 33.050781 66.96875 32.789062 67.207031 32.550781 C 67.445312 32.3125 67.703125 32.101562 67.984375 31.914062 C 68.261719 31.726562 68.558594 31.570312 68.871094 31.441406 C 69.179688 31.3125 69.5 31.214844 69.832031 31.148438 C 70.164062 31.082031 70.496094 31.050781 70.832031 31.050781 C 71.167969 31.050781 71.503906 31.082031 71.832031 31.148438 C 72.164062 31.214844 72.484375 31.3125 72.796875 31.441406 C 73.105469 31.570312 73.402344 31.726562 73.683594 31.914062 C 73.960938 32.101562 74.222656 32.3125 74.460938 32.550781 C 74.699219 32.789062 74.910156 33.050781 75.097656 33.328125 C 75.285156 33.609375 75.441406 33.90625 75.570312 34.214844 C 75.699219 34.527344 75.796875 34.847656 75.863281 35.179688 C 75.929688 35.507812 75.960938 35.84375 75.960938 36.179688 Z M 75.960938 36.179688 " fill-opacity="1" fill-rule="nonzero"/><g clip-path="url(#49191e4da5)"><path fill="#084d22" d="M 57.296875 5.390625 C 57.359375 5.945312 57.507812 6.472656 57.75 6.976562 C 57.992188 7.480469 58.308594 7.929688 58.703125 8.324219 C 59.097656 8.714844 59.546875 9.035156 60.046875 9.273438 C 60.550781 9.515625 61.078125 9.667969 61.632812 9.726562 C 63.386719 9.902344 65.140625 9.980469 66.902344 9.96875 C 65.140625 9.953125 63.386719 10.035156 61.632812 10.207031 C 61.078125 10.269531 60.550781 10.417969 60.046875 10.660156 C 59.546875 10.902344 59.097656 11.21875 58.703125 11.613281 C 58.308594 12.007812 57.992188 12.457031 57.75 12.957031 C 57.507812 13.460938 57.359375 13.988281 57.296875 14.542969 C 57.125 16.296875 57.042969 18.050781 57.058594 19.8125 C 57.070312 18.050781 56.992188 16.296875 56.816406 14.542969 C 56.757812 13.988281 56.605469 13.460938 56.363281 12.957031 C 56.125 12.457031 55.804688 12.007812 55.414062 11.613281 C 55.019531 11.21875 54.570312 10.902344 54.066406 10.660156 C 53.5625 10.417969 53.035156 10.269531 52.480469 10.207031 C 50.730469 10.035156 48.972656 9.953125 47.214844 9.96875 C 48.972656 9.980469 50.730469 9.902344 52.480469 9.726562 C 53.035156 9.667969 53.5625 9.515625 54.066406 9.273438 C 54.570312 9.035156 55.019531 8.714844 55.414062 8.320312 C 55.804688 7.929688 56.125 7.480469 56.363281 6.976562 C 56.605469 6.472656 56.757812 5.945312 56.816406 5.390625 C 56.992188 3.640625 57.070312 1.882812 57.058594 0.125 C 57.042969 1.882812 57.125 3.640625 57.296875 5.390625 Z M 57.296875 5.390625 " fill-opacity="1" fill-rule="nonzero"/></g><g clip-path="url(#74d2a00b9d)"><path fill="#084d22" d="M 68.289062 12.632812 C 68.320312 12.914062 68.394531 13.179688 68.515625 13.4375 C 68.640625 13.691406 68.800781 13.917969 69 14.117188 C 69.199219 14.316406 69.425781 14.476562 69.679688 14.597656 C 69.933594 14.722656 70.203125 14.796875 70.480469 14.828125 C 71.367188 14.914062 72.257812 14.957031 73.148438 14.949219 C 72.257812 14.941406 71.367188 14.980469 70.480469 15.070312 C 70.203125 15.101562 69.933594 15.175781 69.679688 15.300781 C 69.425781 15.421875 69.199219 15.582031 69 15.78125 C 68.800781 15.980469 68.640625 16.207031 68.515625 16.460938 C 68.394531 16.71875 68.320312 16.984375 68.289062 17.265625 C 68.199219 18.152344 68.160156 19.039062 68.167969 19.929688 C 68.171875 19.039062 68.132812 18.152344 68.042969 17.265625 C 68.015625 16.984375 67.9375 16.71875 67.816406 16.460938 C 67.695312 16.207031 67.535156 15.980469 67.332031 15.78125 C 67.132812 15.582031 66.90625 15.421875 66.652344 15.300781 C 66.398438 15.175781 66.132812 15.101562 65.851562 15.070312 C 64.964844 14.980469 64.074219 14.941406 63.183594 14.949219 C 64.074219 14.957031 64.964844 14.914062 65.851562 14.828125 C 66.132812 14.796875 66.398438 14.722656 66.652344 14.597656 C 66.90625 14.476562 67.132812 14.316406 67.332031 14.117188 C 67.535156 13.917969 67.695312 13.691406 67.816406 13.4375 C 67.9375 13.179688 68.015625 12.914062 68.042969 12.632812 C 68.132812 11.746094 68.175781 10.859375 68.167969 9.96875 C 68.160156 10.859375 68.199219 11.746094 68.289062 12.632812 Z M 68.289062 12.632812 " fill-opacity="1" fill-rule="nonzero"/></g><path fill="#084d22" d="M 64.542969 2.804688 C 64.582031 3.15625 64.726562 3.457031 64.976562 3.707031 C 65.230469 3.960938 65.53125 4.105469 65.882812 4.144531 C 66.425781 4.195312 66.96875 4.222656 67.511719 4.21875 C 66.96875 4.210938 66.425781 4.238281 65.882812 4.292969 C 65.53125 4.328125 65.230469 4.472656 64.976562 4.726562 C 64.726562 4.976562 64.582031 5.277344 64.542969 5.632812 C 64.488281 6.171875 64.464844 6.714844 64.46875 7.257812 C 64.472656 6.714844 64.449219 6.171875 64.394531 5.632812 C 64.355469 5.277344 64.210938 4.976562 63.960938 4.726562 C 63.710938 4.472656 63.40625 4.328125 63.054688 4.292969 C 62.515625 4.238281 61.972656 4.210938 61.425781 4.21875 C 61.972656 4.222656 62.515625 4.195312 63.054688 4.144531 C 63.40625 4.105469 63.710938 3.960938 63.960938 3.707031 C 64.210938 3.457031 64.355469 3.15625 64.394531 2.804688 C 64.449219 2.261719 64.472656 1.71875 64.46875 1.175781 C 64.464844 1.71875 64.488281 2.261719 64.542969 2.804688 Z M 64.542969 2.804688 " fill-opacity="1" fill-rule="nonzero"/></svg>