<svg xmlns="http://www.w3.org/2000/svg" xmlns:xlink="http://www.w3.org/1999/xlink" width="369" zoomAndPan="magnify" viewBox="0 0 276.75 75.749997" height="101" preserveAspectRatio="xMidYMid meet" version="1.0"><defs><g/><clipPath id="16a6a86f2b"><path d="M 0.332031 0.167969 L 49 0.167969 L 49 50 L 0.332031 50 Z M 0.332031 0.167969 " clip-rule="nonzero"/></clipPath><clipPath id="2047122abe"><path d="M 5 18 L 81.8125 18 L 81.8125 74.921875 L 5 74.921875 Z M 5 18 " clip-rule="nonzero"/></clipPath><clipPath id="4d2581768d"><path d="M 47.675781 0 L 68 0 L 68 20 L 47.675781 20 Z M 47.675781 0 " clip-rule="nonzero"/></clipPath><clipPath id="e07837ea38"><path d="M 63 9 L 73.839844 9 L 73.839844 20 L 63 20 Z M 63 9 " clip-rule="nonzero"/></clipPath></defs><g clip-path="url(#16a6a86f2b)"><path fill="#084d22" d="M 48.839844 24.46875 C 48.839844 24.859375 48.800781 25.242188 48.726562 25.621094 C 48.648438 26 48.539062 26.367188 48.390625 26.726562 C 48.242188 27.082031 48.0625 27.421875 47.847656 27.742188 C 47.632812 28.066406 47.386719 28.363281 47.113281 28.636719 C 46.839844 28.910156 46.542969 29.15625 46.21875 29.371094 C 45.898438 29.585938 45.558594 29.765625 45.203125 29.914062 C 44.84375 30.0625 44.476562 30.171875 44.097656 30.25 C 43.71875 30.324219 43.335938 30.363281 42.949219 30.363281 L 34.425781 30.363281 C 33.914062 30.363281 33.421875 30.460938 32.949219 30.65625 C 32.476562 30.851562 32.058594 31.132812 31.695312 31.492188 C 31.332031 31.855469 31.054688 32.273438 30.859375 32.746094 C 30.664062 33.21875 30.566406 33.710938 30.566406 34.222656 L 30.566406 43.3125 C 30.566406 43.699219 30.527344 44.085938 30.453125 44.464844 C 30.375 44.84375 30.265625 45.210938 30.117188 45.570312 C 29.96875 45.925781 29.785156 46.265625 29.570312 46.585938 C 29.355469 46.910156 29.113281 47.207031 28.839844 47.480469 C 28.566406 47.753906 28.269531 47.996094 27.945312 48.210938 C 27.625 48.425781 27.285156 48.609375 26.925781 48.757812 C 26.570312 48.90625 26.203125 49.015625 25.820312 49.09375 C 25.441406 49.167969 25.058594 49.207031 24.671875 49.207031 C 24.285156 49.207031 23.902344 49.167969 23.523438 49.09375 C 23.144531 49.015625 22.777344 48.90625 22.417969 48.757812 C 22.0625 48.609375 21.722656 48.425781 21.398438 48.210938 C 21.078125 47.996094 20.78125 47.753906 20.507812 47.480469 C 20.234375 47.207031 19.988281 46.910156 19.773438 46.585938 C 19.558594 46.265625 19.378906 45.925781 19.230469 45.570312 C 19.082031 45.210938 18.96875 44.84375 18.894531 44.464844 C 18.820312 44.085938 18.78125 43.699219 18.78125 43.3125 L 18.78125 34.222656 C 18.78125 33.710938 18.683594 33.21875 18.488281 32.746094 C 18.292969 32.273438 18.011719 31.855469 17.648438 31.492188 C 17.289062 31.132812 16.871094 30.851562 16.398438 30.65625 C 15.925781 30.460938 15.433594 30.363281 14.917969 30.363281 L 6.25 30.363281 C 5.863281 30.363281 5.480469 30.324219 5.097656 30.25 C 4.71875 30.171875 4.351562 30.0625 3.992188 29.914062 C 3.636719 29.765625 3.296875 29.585938 2.976562 29.371094 C 2.652344 29.15625 2.355469 28.910156 2.082031 28.636719 C 1.808594 28.363281 1.566406 28.066406 1.351562 27.742188 C 1.136719 27.421875 0.953125 27.082031 0.804688 26.726562 C 0.65625 26.367188 0.546875 26 0.46875 25.621094 C 0.394531 25.242188 0.355469 24.859375 0.355469 24.46875 C 0.355469 24.082031 0.394531 23.699219 0.46875 23.320312 C 0.546875 22.941406 0.65625 22.574219 0.804688 22.214844 C 0.953125 21.859375 1.136719 21.519531 1.351562 21.199219 C 1.566406 20.875 1.808594 20.578125 2.082031 20.304688 C 2.355469 20.03125 2.652344 19.785156 2.976562 19.570312 C 3.296875 19.355469 3.636719 19.175781 3.992188 19.027344 C 4.351562 18.878906 4.71875 18.769531 5.097656 18.691406 C 5.480469 18.617188 5.863281 18.578125 6.25 18.578125 L 14.921875 18.578125 C 15.433594 18.578125 15.925781 18.480469 16.398438 18.285156 C 16.871094 18.089844 17.289062 17.808594 17.652344 17.449219 C 18.015625 17.085938 18.292969 16.667969 18.488281 16.195312 C 18.683594 15.722656 18.785156 15.230469 18.785156 14.71875 L 18.785156 6.058594 C 18.785156 5.671875 18.820312 5.289062 18.898438 4.910156 C 18.972656 4.53125 19.082031 4.160156 19.230469 3.804688 C 19.378906 3.445312 19.5625 3.105469 19.777344 2.785156 C 19.992188 2.464844 20.234375 2.167969 20.507812 1.894531 C 20.78125 1.621094 21.082031 1.375 21.402344 1.160156 C 21.722656 0.945312 22.0625 0.765625 22.421875 0.617188 C 22.777344 0.46875 23.144531 0.355469 23.527344 0.28125 C 23.90625 0.203125 24.289062 0.167969 24.675781 0.167969 C 25.0625 0.167969 25.445312 0.203125 25.824219 0.28125 C 26.203125 0.355469 26.570312 0.46875 26.929688 0.617188 C 27.285156 0.765625 27.625 0.945312 27.949219 1.160156 C 28.269531 1.375 28.566406 1.621094 28.839844 1.894531 C 29.113281 2.167969 29.359375 2.464844 29.574219 2.785156 C 29.789062 3.105469 29.96875 3.445312 30.117188 3.804688 C 30.265625 4.160156 30.378906 4.53125 30.453125 4.910156 C 30.527344 5.289062 30.566406 5.671875 30.566406 6.058594 L 30.566406 14.714844 C 30.566406 15.226562 30.664062 15.71875 30.859375 16.195312 C 31.054688 16.667969 31.335938 17.085938 31.699219 17.445312 C 32.058594 17.808594 32.476562 18.085938 32.949219 18.285156 C 33.421875 18.480469 33.917969 18.578125 34.429688 18.578125 L 42.949219 18.578125 C 43.335938 18.578125 43.71875 18.617188 44.097656 18.691406 C 44.476562 18.765625 44.847656 18.878906 45.203125 19.027344 C 45.5625 19.175781 45.902344 19.355469 46.222656 19.570312 C 46.542969 19.785156 46.839844 20.03125 47.113281 20.304688 C 47.386719 20.578125 47.632812 20.875 47.847656 21.195312 C 48.0625 21.519531 48.242188 21.859375 48.390625 22.214844 C 48.539062 22.574219 48.652344 22.941406 48.726562 23.320312 C 48.800781 23.699219 48.839844 24.082031 48.839844 24.46875 Z M 48.839844 24.46875 " fill-opacity="1" fill-rule="nonzero"/></g><g clip-path="url(#2047122abe)"><path fill="#38b6ff" d="M 82.0625 35.785156 C 82.0625 37.0625 82 38.335938 81.875 39.605469 C 81.75 40.878906 81.5625 42.140625 81.3125 43.394531 C 81.0625 44.644531 80.753906 45.882812 80.382812 47.105469 C 80.011719 48.328125 79.582031 49.527344 79.09375 50.707031 C 78.605469 51.886719 78.058594 53.042969 77.457031 54.167969 C 76.855469 55.292969 76.199219 56.386719 75.488281 57.449219 C 74.78125 58.511719 74.019531 59.535156 73.210938 60.523438 C 72.398438 61.511719 71.542969 62.457031 70.640625 63.359375 C 69.738281 64.261719 68.792969 65.117188 67.804688 65.929688 C 66.816406 66.738281 65.792969 67.5 64.730469 68.207031 C 63.667969 68.917969 62.574219 69.574219 61.449219 70.175781 C 60.320312 70.777344 59.167969 71.324219 57.988281 71.8125 C 56.808594 72.300781 55.609375 72.730469 54.386719 73.101562 C 53.164062 73.472656 51.925781 73.78125 50.675781 74.03125 C 49.421875 74.28125 48.160156 74.46875 46.886719 74.59375 C 45.617188 74.71875 44.34375 74.78125 43.066406 74.78125 C 25.34375 74.78125 10.382812 62.957031 5.640625 46.769531 C 12.050781 59.515625 25.253906 68.257812 40.496094 68.257812 C 46.328125 68.269531 51.878906 67.027344 57.152344 64.53125 C 64.800781 60.914062 67.828125 51.625 63.84375 44.164062 C 61.539062 39.859375 58.535156 36.113281 54.832031 32.929688 C 59.753906 35.878906 63.832031 39.722656 67.066406 44.460938 C 69.597656 48.175781 75.242188 47.539062 76.867188 43.347656 C 78.414062 39.339844 79.273438 35.191406 79.453125 30.898438 C 79.636719 26.609375 79.125 22.402344 77.921875 18.28125 C 80.691406 23.785156 82.070312 29.621094 82.0625 35.785156 Z M 82.0625 35.785156 " fill-opacity="1" fill-rule="nonzero"/></g><path fill="#38b6ff" d="M 76.503906 36.175781 C 76.503906 36.511719 76.46875 36.847656 76.402344 37.179688 C 76.335938 37.507812 76.238281 37.832031 76.109375 38.144531 C 75.980469 38.457031 75.824219 38.75 75.636719 39.03125 C 75.449219 39.3125 75.234375 39.574219 74.996094 39.8125 C 74.757812 40.050781 74.496094 40.265625 74.214844 40.453125 C 73.933594 40.640625 73.636719 40.796875 73.328125 40.925781 C 73.015625 41.054688 72.691406 41.152344 72.363281 41.21875 C 72.03125 41.285156 71.695312 41.320312 71.359375 41.320312 C 71.019531 41.320312 70.6875 41.285156 70.355469 41.21875 C 70.023438 41.152344 69.703125 41.054688 69.390625 40.925781 C 69.078125 40.796875 68.78125 40.640625 68.5 40.453125 C 68.21875 40.265625 67.960938 40.050781 67.722656 39.8125 C 67.480469 39.574219 67.269531 39.3125 67.082031 39.03125 C 66.894531 38.75 66.734375 38.457031 66.605469 38.144531 C 66.476562 37.832031 66.378906 37.507812 66.3125 37.179688 C 66.246094 36.847656 66.214844 36.511719 66.214844 36.175781 C 66.214844 35.835938 66.246094 35.503906 66.3125 35.171875 C 66.378906 34.839844 66.476562 34.519531 66.605469 34.207031 C 66.734375 33.894531 66.894531 33.597656 67.082031 33.316406 C 67.269531 33.035156 67.480469 32.777344 67.722656 32.539062 C 67.960938 32.296875 68.21875 32.085938 68.5 31.898438 C 68.78125 31.710938 69.078125 31.550781 69.390625 31.421875 C 69.703125 31.292969 70.023438 31.195312 70.355469 31.128906 C 70.6875 31.0625 71.019531 31.03125 71.359375 31.03125 C 71.695312 31.03125 72.03125 31.0625 72.363281 31.128906 C 72.691406 31.195312 73.015625 31.292969 73.328125 31.421875 C 73.636719 31.550781 73.933594 31.710938 74.214844 31.898438 C 74.496094 32.085938 74.757812 32.296875 74.996094 32.539062 C 75.234375 32.777344 75.449219 33.035156 75.636719 33.316406 C 75.824219 33.597656 75.980469 33.894531 76.109375 34.207031 C 76.238281 34.519531 76.335938 34.839844 76.402344 35.171875 C 76.46875 35.503906 76.503906 35.835938 76.503906 36.175781 Z M 76.503906 36.175781 " fill-opacity="1" fill-rule="nonzero"/><g clip-path="url(#4d2581768d)"><path fill="#084d22" d="M 57.785156 5.300781 C 57.847656 5.859375 57.996094 6.386719 58.238281 6.890625 C 58.480469 7.394531 58.800781 7.847656 59.195312 8.242188 C 59.589844 8.636719 60.039062 8.953125 60.542969 9.195312 C 61.046875 9.4375 61.578125 9.589844 62.132812 9.648438 C 63.890625 9.824219 65.652344 9.90625 67.417969 9.890625 C 65.652344 9.875 63.890625 9.957031 62.132812 10.132812 C 61.578125 10.191406 61.046875 10.34375 60.542969 10.585938 C 60.039062 10.828125 59.589844 11.144531 59.195312 11.539062 C 58.800781 11.9375 58.480469 12.386719 58.238281 12.890625 C 57.996094 13.394531 57.847656 13.925781 57.785156 14.480469 C 57.609375 16.238281 57.53125 17.996094 57.546875 19.761719 C 57.558594 17.996094 57.480469 16.238281 57.304688 14.480469 C 57.242188 13.925781 57.09375 13.394531 56.851562 12.890625 C 56.609375 12.386719 56.289062 11.9375 55.894531 11.539062 C 55.5 11.144531 55.050781 10.828125 54.546875 10.585938 C 54.042969 10.34375 53.511719 10.191406 52.957031 10.132812 C 51.199219 9.957031 49.4375 9.875 47.675781 9.890625 C 49.4375 9.90625 51.199219 9.824219 52.957031 9.648438 C 53.511719 9.589844 54.042969 9.4375 54.546875 9.195312 C 55.050781 8.953125 55.5 8.636719 55.894531 8.242188 C 56.289062 7.84375 56.609375 7.394531 56.851562 6.890625 C 57.09375 6.386719 57.242188 5.859375 57.304688 5.300781 C 57.480469 3.546875 57.558594 1.785156 57.546875 0.0195312 C 57.53125 1.785156 57.609375 3.546875 57.785156 5.300781 Z M 57.785156 5.300781 " fill-opacity="1" fill-rule="nonzero"/></g><g clip-path="url(#e07837ea38)"><path fill="#084d22" d="M 68.804688 12.5625 C 68.835938 12.84375 68.914062 13.113281 69.035156 13.367188 C 69.160156 13.625 69.320312 13.851562 69.519531 14.050781 C 69.71875 14.25 69.945312 14.414062 70.203125 14.535156 C 70.457031 14.65625 70.726562 14.734375 71.007812 14.765625 C 71.894531 14.851562 72.785156 14.894531 73.679688 14.886719 C 72.785156 14.878906 71.894531 14.917969 71.007812 15.007812 C 70.726562 15.039062 70.457031 15.113281 70.203125 15.238281 C 69.945312 15.359375 69.71875 15.519531 69.519531 15.722656 C 69.320312 15.921875 69.160156 16.148438 69.035156 16.402344 C 68.914062 16.660156 68.835938 16.925781 68.804688 17.207031 C 68.71875 18.097656 68.675781 18.988281 68.683594 19.882812 C 68.691406 18.988281 68.652344 18.097656 68.5625 17.207031 C 68.53125 16.925781 68.457031 16.660156 68.332031 16.402344 C 68.210938 16.148438 68.050781 15.921875 67.847656 15.722656 C 67.648438 15.519531 67.421875 15.359375 67.167969 15.238281 C 66.910156 15.113281 66.644531 15.039062 66.363281 15.007812 C 65.472656 14.917969 64.582031 14.878906 63.6875 14.886719 C 64.582031 14.894531 65.472656 14.851562 66.363281 14.765625 C 66.644531 14.734375 66.910156 14.65625 67.167969 14.535156 C 67.421875 14.414062 67.648438 14.25 67.847656 14.050781 C 68.050781 13.851562 68.210938 13.625 68.332031 13.367188 C 68.457031 13.113281 68.53125 12.84375 68.5625 12.5625 C 68.652344 11.675781 68.691406 10.785156 68.683594 9.890625 C 68.675781 10.785156 68.71875 11.675781 68.804688 12.5625 Z M 68.804688 12.5625 " fill-opacity="1" fill-rule="nonzero"/></g><path fill="#084d22" d="M 65.050781 2.707031 C 65.089844 3.058594 65.234375 3.363281 65.488281 3.613281 C 65.738281 3.867188 66.042969 4.011719 66.394531 4.050781 C 66.9375 4.105469 67.480469 4.128906 68.027344 4.125 C 67.480469 4.121094 66.9375 4.144531 66.394531 4.199219 C 66.042969 4.238281 65.738281 4.382812 65.488281 4.632812 C 65.234375 4.886719 65.089844 5.1875 65.050781 5.542969 C 64.996094 6.085938 64.972656 6.628906 64.976562 7.175781 C 64.980469 6.628906 64.957031 6.085938 64.902344 5.542969 C 64.863281 5.1875 64.71875 4.886719 64.46875 4.632812 C 64.214844 4.382812 63.914062 4.238281 63.558594 4.199219 C 63.015625 4.144531 62.472656 4.121094 61.925781 4.125 C 62.472656 4.128906 63.015625 4.105469 63.558594 4.050781 C 63.914062 4.011719 64.214844 3.867188 64.46875 3.613281 C 64.71875 3.363281 64.863281 3.058594 64.902344 2.707031 C 64.957031 2.164062 64.980469 1.621094 64.976562 1.074219 C 64.972656 1.621094 64.996094 2.164062 65.050781 2.707031 Z M 65.050781 2.707031 " fill-opacity="1" fill-rule="nonzero"/><g fill="#084d22" fill-opacity="1"><g transform="translate(97.610358, 49.064041)"><g><path d="M 7.109375 0.234375 C 5.234375 0.234375 3.734375 -0.347656 2.609375 -1.515625 C 1.484375 -2.691406 0.921875 -4.304688 0.921875 -6.359375 L 0.921875 -18.203125 C 0.921875 -20.753906 1.425781 -22.675781 2.4375 -23.96875 C 3.457031 -25.269531 5.054688 -25.921875 7.234375 -25.921875 C 9.128906 -25.921875 10.65625 -25.398438 11.8125 -24.359375 C 12.96875 -23.328125 13.546875 -21.832031 13.546875 -19.875 L 13.546875 -15.453125 L 8.421875 -15.453125 L 8.421875 -19.25 C 8.421875 -19.988281 8.332031 -20.492188 8.15625 -20.765625 C 7.976562 -21.046875 7.671875 -21.1875 7.234375 -21.1875 C 6.773438 -21.1875 6.457031 -21.023438 6.28125 -20.703125 C 6.113281 -20.390625 6.03125 -19.925781 6.03125 -19.3125 L 6.03125 -6.421875 C 6.03125 -5.742188 6.128906 -5.25 6.328125 -4.9375 C 6.535156 -4.632812 6.835938 -4.484375 7.234375 -4.484375 C 8.023438 -4.484375 8.421875 -5.128906 8.421875 -6.421875 L 8.421875 -11.0625 L 13.59375 -11.0625 L 13.59375 -6.21875 C 13.59375 -1.914062 11.429688 0.234375 7.109375 0.234375 Z M 7.109375 0.234375 "/></g></g></g><g fill="#084d22" fill-opacity="1"><g transform="translate(111.778077, 49.064041)"><g><path d="M 1.140625 0 L 1.140625 -25.671875 L 6.28125 -25.671875 L 6.28125 -4.359375 L 11.5625 -4.359375 L 11.5625 0 Z M 1.140625 0 "/></g></g></g><g fill="#084d22" fill-opacity="1"><g transform="translate(123.644282, 49.064041)"><g><path d="M 0.890625 0 L 0.890625 -25.671875 L 5.859375 -25.671875 L 5.859375 0 Z M 0.890625 0 "/></g></g></g><g fill="#084d22" fill-opacity="1"><g transform="translate(130.429247, 49.064041)"><g><path d="M 1.140625 0 L 1.140625 -25.671875 L 6.421875 -25.671875 L 8.78125 -13.390625 L 8.78125 -25.671875 L 13.75 -25.671875 L 13.75 0 L 8.734375 0 L 6.15625 -12.859375 L 6.15625 0 Z M 1.140625 0 "/></g></g></g><g fill="#084d22" fill-opacity="1"><g transform="translate(145.314317, 49.064041)"><g><path d="M 0.890625 0 L 0.890625 -25.671875 L 5.859375 -25.671875 L 5.859375 0 Z M 0.890625 0 "/></g></g></g><g fill="#084d22" fill-opacity="1"><g transform="translate(152.099281, 49.064041)"><g><path d="M 1.140625 0 L 1.140625 -25.671875 L 11.421875 -25.671875 L 11.421875 -20.6875 L 6.3125 -20.6875 L 6.3125 -16.59375 L 11.15625 -16.59375 L 11.15625 -11.65625 L 6.3125 -11.65625 L 6.3125 0 Z M 1.140625 0 "/></g></g></g><g fill="#084d22" fill-opacity="1"><g transform="translate(164.025268, 49.064041)"><g><path d="M 4.25 0 L 4.25 -8.453125 L 0.15625 -25.671875 L 5.234375 -25.671875 L 6.671875 -16.984375 L 8.09375 -25.671875 L 13.1875 -25.671875 L 9.09375 -8.453125 L 9.09375 0 Z M 4.25 0 "/></g></g></g></svg>